<svg xmlns="http://www.w3.org/2000/svg" viewBox="0 0 500 500"><g id="freepik--background-complete--inject-67"><rect y="382.4" width="500" height="0.25" style="fill:#ebebeb"></rect><rect x="52.46" y="391.92" width="33.12" height="0.25" style="fill:#ebebeb"></rect><rect x="171.14" y="389.21" width="55.42" height="0.25" style="fill:#ebebeb"></rect><rect x="91" y="397.86" width="19.19" height="0.25" style="fill:#ebebeb"></rect><rect x="385.46" y="391.8" width="43.19" height="0.25" style="fill:#ebebeb"></rect><rect x="437.56" y="391.8" width="6.33" height="0.25" style="fill:#ebebeb"></rect><rect x="277.21" y="395.31" width="46.84" height="0.25" style="fill:#ebebeb"></rect><path d="M237,337.8H43.91a5.71,5.71,0,0,1-5.7-5.71V60.66A5.71,5.71,0,0,1,43.91,55H237a5.71,5.71,0,0,1,5.71,5.71V332.09A5.71,5.71,0,0,1,237,337.8ZM43.91,55.2a5.46,5.46,0,0,0-5.45,5.46V332.09a5.46,5.46,0,0,0,5.45,5.46H237a5.47,5.47,0,0,0,5.46-5.46V60.66A5.47,5.47,0,0,0,237,55.2Z" style="fill:#ebebeb"></path><path d="M453.31,337.8H260.21a5.72,5.72,0,0,1-5.71-5.71V60.66A5.72,5.72,0,0,1,260.21,55h193.1A5.71,5.71,0,0,1,459,60.66V332.09A5.71,5.71,0,0,1,453.31,337.8ZM260.21,55.2a5.47,5.47,0,0,0-5.46,5.46V332.09a5.47,5.47,0,0,0,5.46,5.46h193.1a5.47,5.47,0,0,0,5.46-5.46V60.66a5.47,5.47,0,0,0-5.46-5.46Z" style="fill:#ebebeb"></path><rect x="149.93" y="124.27" width="62.86" height="100" transform="translate(362.72 348.54) rotate(180)" style="fill:#e0e0e0"></rect><rect x="146.14" y="124.27" width="64.99" height="100" transform="translate(357.28 348.54) rotate(180)" style="fill:#f5f5f5"></rect><rect x="135.93" y="147.22" width="85.42" height="54.1" transform="translate(4.37 352.91) rotate(-90)" style="fill:#fff"></rect><rect x="61.17" y="76.02" width="62.86" height="100" transform="translate(185.19 252.04) rotate(180)" style="fill:#e0e0e0"></rect><rect x="57.38" y="76.02" width="64.99" height="100" transform="translate(179.75 252.04) rotate(180)" style="fill:#f5f5f5"></rect><rect x="47.17" y="98.97" width="85.42" height="54.1" transform="translate(-36.14 215.89) rotate(-90)" style="fill:#fff"></rect><rect x="31.42" y="287.37" width="135.61" height="54.43" transform="translate(413.82 215.37) rotate(90)" style="fill:#f0f0f0"></rect><rect x="79.26" y="245.92" width="39.92" height="48.46" transform="translate(369.37 170.92) rotate(90)" style="fill:#e6e6e6"></rect><rect x="79.26" y="289.42" width="39.92" height="48.46" transform="translate(412.87 214.43) rotate(90)" style="fill:#e6e6e6"></rect><rect x="79.26" y="332.92" width="39.92" height="48.46" transform="translate(456.38 257.93) rotate(90)" style="fill:#e6e6e6"></rect><rect x="64.56" y="260.62" width="39.92" height="19.06" transform="translate(354.67 185.62) rotate(90)" style="fill:#e0e0e0"></rect><circle cx="101.31" cy="274.75" r="15.36" style="fill:#f0f0f0"></circle><path d="M123.45,259.38v30.73a15.37,15.37,0,0,1,0-30.73Z" style="fill:#f5f5f5"></path><rect x="64.56" y="304.12" width="39.92" height="19.06" transform="translate(398.17 229.12) rotate(90)" style="fill:#e0e0e0"></rect><rect x="102.59" y="326.05" width="13.2" height="7.56" transform="translate(218.38 659.66) rotate(180)" style="fill:#fafafa"></rect><rect x="115.79" y="326.05" width="5.57" height="7.56" style="fill:#f0f0f0"></rect><rect x="81.26" y="326.05" width="13.2" height="7.56" transform="translate(175.72 659.66) rotate(180)" style="fill:#fafafa"></rect><rect x="94.46" y="326.05" width="5.57" height="7.56" style="fill:#f0f0f0"></rect><rect x="91.69" y="318.48" width="13.2" height="7.56" transform="translate(196.58 644.53) rotate(180)" style="fill:#fafafa"></rect><rect x="104.89" y="318.48" width="5.57" height="7.56" style="fill:#f0f0f0"></rect><rect x="64.56" y="347.62" width="39.92" height="19.06" transform="translate(441.68 272.63) rotate(90)" style="fill:#e0e0e0"></rect><rect x="66.02" y="307.2" width="135.61" height="14.78" transform="translate(448.42 180.76) rotate(90)" style="fill:#f5f5f5"></rect><rect x="114.89" y="346.94" width="7.46" height="30.18" transform="translate(237.24 724.05) rotate(180)" style="fill:#f0f0f0"></rect><rect x="122.35" y="346.94" width="1.1" height="30.18" style="fill:#e0e0e0"></rect><rect x="105.39" y="349.33" width="4.66" height="27.79" transform="translate(215.43 726.44) rotate(180)" style="fill:#f0f0f0"></rect><rect x="110.05" y="349.33" width="4.84" height="27.79" style="fill:#e0e0e0"></rect><rect x="88.35" y="287.37" width="135.61" height="54.43" transform="translate(470.75 158.43) rotate(90)" style="fill:#f0f0f0"></rect><rect x="136.2" y="245.92" width="39.92" height="48.46" transform="translate(426.31 113.98) rotate(90)" style="fill:#e6e6e6"></rect><rect x="136.2" y="289.42" width="39.92" height="48.46" transform="translate(469.81 157.49) rotate(90)" style="fill:#e6e6e6"></rect><rect x="136.2" y="332.92" width="39.92" height="48.46" transform="translate(513.32 200.99) rotate(90)" style="fill:#e6e6e6"></rect><rect x="121.5" y="260.62" width="39.92" height="19.06" transform="translate(411.61 128.68) rotate(90)" style="fill:#e0e0e0"></rect><rect x="121.5" y="304.12" width="39.92" height="19.06" transform="translate(455.11 172.19) rotate(90)" style="fill:#e0e0e0"></rect><rect x="137.7" y="318.28" width="12.69" height="15.33" transform="translate(288.1 651.89) rotate(180)" style="fill:#fafafa"></rect><rect x="150.4" y="318.28" width="5.36" height="15.33" style="fill:#f0f0f0"></rect><rect x="153.7" y="312.71" width="17.3" height="20.9" transform="translate(324.7 646.32) rotate(180)" style="fill:#fafafa"></rect><rect x="171" y="312.71" width="7.3" height="20.9" style="fill:#f0f0f0"></rect><rect x="121.5" y="347.62" width="39.92" height="19.06" transform="translate(498.62 215.69) rotate(90)" style="fill:#e0e0e0"></rect><rect x="122.96" y="307.2" width="135.61" height="14.78" transform="translate(505.36 123.82) rotate(90)" style="fill:#f5f5f5"></rect><rect x="144.05" y="361.5" width="31.66" height="15.61" transform="translate(319.76 738.62) rotate(180)" style="fill:#f0f0f0"></rect><rect x="144.05" y="361.5" width="31.66" height="1.88" transform="translate(319.76 724.89) rotate(180)" style="fill:#e0e0e0"></rect><rect x="175.71" y="361.5" width="4.68" height="15.61" style="fill:#e0e0e0"></rect><rect x="143.57" y="358.92" width="32.14" height="3.71" transform="translate(319.28 721.55) rotate(180)" style="fill:#ebebeb"></rect><rect x="175.71" y="358.92" width="4.68" height="3.71" style="fill:#e0e0e0"></rect><rect x="135.22" y="280.24" width="39.35" height="9.86" transform="translate(309.79 570.35) rotate(180)" style="fill:#f0f0f0"></rect><rect x="174.57" y="280.24" width="5.82" height="9.86" style="fill:#e0e0e0"></rect><rect x="135.22" y="267.74" width="39.35" height="9.86" transform="translate(309.79 545.34) rotate(180)" style="fill:#f0f0f0"></rect><rect x="174.57" y="267.74" width="5.82" height="9.86" style="fill:#e0e0e0"></rect><rect x="235.65" y="91.12" width="201.25" height="210.63" style="fill:#e0e0e0"></rect><rect x="234.25" y="91.12" width="201.25" height="210.63" style="fill:#f5f5f5"></rect><rect x="235.87" y="102.12" width="198.02" height="188.64" transform="translate(531.31 -138.44) rotate(90)" style="fill:#fafafa"></rect><polygon points="355.91 295.44 373.02 97.43 392.22 97.43 375.11 295.44 355.91 295.44" style="fill:#fff"></polygon><polygon points="275.49 295.44 292.61 97.43 311.8 97.43 294.69 295.44 275.49 295.44" style="fill:#fff"></polygon><polygon points="379.83 295.44 396.94 97.43 408.27 97.43 391.16 295.44 379.83 295.44" style="fill:#fff"></polygon></g><g id="freepik--Shadow--inject-67"><ellipse id="freepik--path--inject-67" cx="250" cy="416.24" rx="193.89" ry="11.32" style="fill:#f5f5f5"></ellipse></g><g id="freepik--Thoughts--inject-67"><path d="M176,133a18.21,18.21,0,0,0-9.38-33.28A42.15,42.15,0,0,0,126.3,76.81a29.44,29.44,0,0,0-44.49,36.5,18.19,18.19,0,0,0,8.28,28.54,17.73,17.73,0,0,0,4.32.92,42.09,42.09,0,0,0,43,17.37A24.39,24.39,0,0,0,176,133Z" style="fill:#407BFF"></path><path d="M176,133a18.21,18.21,0,0,0-9.38-33.28A42.15,42.15,0,0,0,126.3,76.81a29.44,29.44,0,0,0-44.49,36.5,18.19,18.19,0,0,0,8.28,28.54,17.73,17.73,0,0,0,4.32.92,42.09,42.09,0,0,0,43,17.37A24.39,24.39,0,0,0,176,133Z" style="fill:#fff;opacity:0.8"></path><circle cx="186.25" cy="78.66" r="13.88" transform="translate(-15.93 78.21) rotate(-22.77)" style="fill:#407BFF"></circle><circle cx="186.25" cy="78.66" r="13.88" transform="translate(-15.93 78.21) rotate(-22.77)" style="fill:#fff;opacity:0.8"></circle><path d="M232,82.7a7.15,7.15,0,1,1-3.91-9.32A7.14,7.14,0,0,1,232,82.7Z" style="fill:#407BFF"></path><path d="M232,82.7a7.15,7.15,0,1,1-3.91-9.32A7.14,7.14,0,0,1,232,82.7Z" style="fill:#fff;opacity:0.8"></path><path d="M149.87,152.67a34.07,34.07,0,0,1-10-1.86q-4.27-1.35-8.25-3a124.12,124.12,0,0,1-21.9-8c-4.22-2-9.06-4.56-13-8.42a21.5,21.5,0,0,1-6.78-14,29,29,0,0,1,.82-7.45c1.87-8.68,5-14.73,9.51-18.48A24.45,24.45,0,0,1,113,86.45a32.18,32.18,0,0,1,24.58,7.11,28.88,28.88,0,0,1,5.76.66,6.7,6.7,0,0,1,5.2,1.73,24.43,24.43,0,0,1,12,11.66,32.85,32.85,0,0,1,2.67,11.53,59.4,59.4,0,0,1-.09,10,.28.28,0,0,1,0,.09,39.87,39.87,0,0,1,1.05,9.79,15.29,15.29,0,0,1-3.38,9.25,14.09,14.09,0,0,1-10,4.4C150.43,152.67,150.15,152.67,149.87,152.67Zm-14.45-3.95q2.28.84,4.63,1.58a31.08,31.08,0,0,0,10.63,1.82,13.55,13.55,0,0,0,9.66-4.22,14.67,14.67,0,0,0,3.25-8.93,34.51,34.51,0,0,0-.72-8,18,18,0,0,1-3.06,8.48,14.77,14.77,0,0,1-1.54,1.71,6.81,6.81,0,0,1-2.15,2.76,7.45,7.45,0,0,1-2.75,1.18c-.22,0-.44.1-.66.13a25.28,25.28,0,0,1-2.3,1.25,26.18,26.18,0,0,1-14,2.1.11.11,0,0,1,0,.08.27.27,0,0,1-.32.21Zm-4.14-1.65c6.82,1.86,13.53,1.48,18.9-1.06.4-.19.8-.4,1.21-.62a14.46,14.46,0,0,1-8.3-2.31,35.56,35.56,0,0,1-6.94.55c-4.6,0-10.57-.34-15.93-2.86a21.41,21.41,0,0,1-4.55-2.91,8.51,8.51,0,0,1-1.44-.66A78.4,78.4,0,0,0,131.28,147.07ZM101.1,120.26a19.46,19.46,0,0,0,1.76,7.66c2.23,4.61,6.63,7.76,10.59,10.35a78,78,0,0,0,13,7.13,75.46,75.46,0,0,1-14.79-9.63c-6-5-9.41-10-10.46-15.24C101.13,120.44,101.12,120.35,101.1,120.26ZM117,86.73a31.39,31.39,0,0,0-4,.25,23.91,23.91,0,0,0-12.35,5c-4.44,3.67-7.49,9.62-9.33,18.18a28.5,28.5,0,0,0-.81,7.31,21,21,0,0,0,6.62,13.62c3.86,3.8,8.65,6.34,12.83,8.32a124,124,0,0,0,14.5,5.78,84.12,84.12,0,0,1-11.31-6.43c-4-2.63-8.49-5.84-10.78-10.56a21,21,0,0,1-1.84-9.18,18.75,18.75,0,0,1-.69-1.81,7.49,7.49,0,0,1-.44-2.82,5.92,5.92,0,0,1,2.07-3.89,18,18,0,0,1,1.59-4.35,15,15,0,0,1,6.81-6.32,7.85,7.85,0,0,1,2.21-1.16l.65-.21c.44-.53.88-1.07,1.32-1.59,2.44-2.88,5.46-5.93,9.36-6.8a12.73,12.73,0,0,1,9.3,1.84,18.73,18.73,0,0,1,2.45,1.75l1.52-.06A31.52,31.52,0,0,0,117,86.73Zm30,57.57a12.2,12.2,0,0,0,5.5.43c.76-.46,1.57-1,2.46-1.62a26.15,26.15,0,0,0,2.85-2.26,12.58,12.58,0,0,0,.93-4,31.65,31.65,0,0,0-.54-8.19A15.7,15.7,0,0,1,157,134a14.18,14.18,0,0,1-4.4,5.68,12.67,12.67,0,0,1-1,1.63A6.68,6.68,0,0,1,147,144.3Zm10-2.08c-.59.47-1.19.91-1.78,1.32-.41.29-.8.56-1.18.81a6.15,6.15,0,0,0,1.7-.85A5.88,5.88,0,0,0,157.07,142.22Zm-12.62.53a4,4,0,0,0,1.11.76c2,.91,4.36-.67,5.66-2.53.14-.21.28-.42.41-.64A12.18,12.18,0,0,1,148,141.9a14.65,14.65,0,0,1-1.84.29A17.77,17.77,0,0,1,144.45,142.75Zm-27.57-4.61a19.86,19.86,0,0,0,3.57,2.14c5.26,2.48,11.15,2.81,15.7,2.81h.1a36.19,36.19,0,0,0,6.2-.43c-.27-.19-.54-.38-.8-.58l-.36-.28a35,35,0,0,1-5.83-1.94,27.49,27.49,0,0,1-8-4.58l-.43-.4a29.91,29.91,0,0,1-3-.42c-2,2.36-3.95,3.58-6,3.72A5.88,5.88,0,0,1,116.88,138.14ZM142.46,142l.73.49.21,0-.09-.1-.26-.27Zm1.41.16.13.14.39-.1Zm-.56-.58a14.53,14.53,0,0,0,2.72.06l.47-.19c1-.45,2.3-1.25,2.49-2.49a3.93,3.93,0,0,0-1-2.72c-.3-.4-.6-.79-.92-1.17a8.79,8.79,0,0,1-4.59-.74,14.34,14.34,0,0,1-3.9.55l-.7.19A51.07,51.07,0,0,0,143.31,141.6Zm-1.78-.3q.47.1.93.18a48.38,48.38,0,0,1-5.14-6.28c-.33.07-.66.11-1,.15A27,27,0,0,0,141.53,141.3Zm6.16-6.29q.38.47.72.93a4.38,4.38,0,0,1,1.1,3.12,3.46,3.46,0,0,1-1.75,2.34l.1,0a11.92,11.92,0,0,0,4.33-2.06,13.13,13.13,0,0,0,1.23-5.51,3.16,3.16,0,0,1-1.4-.63,11.51,11.51,0,0,1-1.57.95A9.87,9.87,0,0,1,147.69,135Zm-19.77-.07a27.29,27.29,0,0,0,7.75,4.43A38.19,38.19,0,0,0,140.4,141a29.34,29.34,0,0,1-4.68-5.62,19,19,0,0,1-5.38-.45A21.67,21.67,0,0,1,127.92,134.94Zm30.18-9.49a37.27,37.27,0,0,1,1.19,11.44,14.64,14.64,0,0,1-.56,3,9.73,9.73,0,0,0,.65-.79c2.23-2.95,2.86-6.82,3.16-9.91-.32-1.61-.71-3.48-1.23-5.27a34.09,34.09,0,0,0-3.79-8.44,11.81,11.81,0,0,1-.8,2.12v0a6.27,6.27,0,0,1-.28,2.76,8.81,8.81,0,0,1,.5,1.13.27.27,0,0,1,.24.17A18.23,18.23,0,0,1,158.1,125.45ZM154,133.79a13.94,13.94,0,0,1-.89,4.8,13.52,13.52,0,0,0,3.45-4.82,15.75,15.75,0,0,0,1-8.22l-.27-1.14a10.09,10.09,0,0,1-.94,3.35c-.13.28-.27.55-.41.82a8.83,8.83,0,0,1-.41,3.54,2.48,2.48,0,0,1-1.24,1.56A1.5,1.5,0,0,1,154,133.79Zm-38,3.59a5.4,5.4,0,0,0,2.09.27c1.83-.13,3.62-1.22,5.44-3.31-1.18-.25-2.26-.53-3.18-.79a38.38,38.38,0,0,1-9-3.63l-.58-.35A16.45,16.45,0,0,0,115.94,137.38Zm-14.36-17.45c.4.78.83,1.53,1.25,2.25a83.16,83.16,0,0,0,7.49,10.71,16.85,16.85,0,0,0,4.07,3.78,16.42,16.42,0,0,1-4.36-7.53,9,9,0,0,1-3.57-4.14c-1-2.47-.35-5.23.36-7.84.39-1.45.81-2.93,1.33-4.39a7.81,7.81,0,0,1-1.35-4.5,17.35,17.35,0,0,0-2.41.91,10.23,10.23,0,0,0-1.63.94A17.82,17.82,0,0,0,101.58,119.93Zm.44,1.91c1.27,4.45,4.36,8.74,9.37,13.06-.53-.55-1-1.12-1.48-1.67a83.56,83.56,0,0,1-7.54-10.78Zm31,12.79a13.22,13.22,0,0,0,1.78,0h0l-.92-.15Zm10.21-.53a8.37,8.37,0,0,0,3.39.5c-.46-.51-.93-1-1.42-1.47q-.47.28-1,.54C143.93,133.83,143.59,134,143.25,134.1Zm2.43-1.27c.56.55,1.1,1.11,1.61,1.71a9.44,9.44,0,0,0,2.93-.89,10.05,10.05,0,0,0,1.37-.81l-.26-.23-.24-.23L148.51,130A12.18,12.18,0,0,1,145.68,132.83Zm-18.38,1.54,1,.06L127,134Zm-1.15-2.31a10.44,10.44,0,0,0,3.62,2,11.5,11.5,0,0,0,1.28.34l.42,0h.13a7.86,7.86,0,0,1-4.07-1.68C127.06,132.46,126.61,132.27,126.15,132.06Zm9.43,2.12,1.17.12c-.12-.19-.23-.38-.34-.57l-.93.3A1.3,1.3,0,0,0,135.58,134.18ZM124.45,134c.66.11,1.34.22,2,.3-.19-.21-.37-.41-.54-.62l-1-.36-.14.19Zm16.89-.29a10.57,10.57,0,0,1-1.05.56q.78-.1,1.5-.27Zm-4.42-.16q.18.33.39.66a14.77,14.77,0,0,0,3.11-1.22c-.23-.21-.44-.43-.65-.65C138.86,132.77,137.9,133.18,136.92,133.54Zm3.93-.2a14.43,14.43,0,0,1-1.82.86h0a11.56,11.56,0,0,0,1.83-.83Zm-30.35-4.53c.33.22.67.43,1,.65a38.4,38.4,0,0,0,8.89,3.58c1,.28,2.15.58,3.43.83q.27-.33.54-.69l.06-.08a19.26,19.26,0,0,1-6.57-4.07,14.71,14.71,0,0,1-3.3-5.23c-.65-.7-1.26-1.42-1.85-2.17-.24-.3-.46-.61-.67-.93-.12.13-.24.27-.35.41a8.88,8.88,0,0,0-1.31,7.26C110.43,128.52,110.47,128.67,110.5,128.81Zm17.3,3.37a33.67,33.67,0,0,0,5.66,1.65,9.06,9.06,0,0,0,1.18-.16l-.76-1.33c-.33-.59-.67-1.22-1-1.89-1.26-.42-2.48-.94-3.65-1.46l-1.16-.52c-.46.81-1,1.61-1.45,2.39A6.17,6.17,0,0,0,127.8,132.18Zm14,1.22.43.25.25.14a11.17,11.17,0,0,0,1.5-.6c.28-.14.54-.28.8-.44l-1-.9A13.76,13.76,0,0,1,141.84,133.4Zm-15.58-.18,1.25.42a10.37,10.37,0,0,1-1.85-1.3l0,0C125.83,132.66,126,132.94,126.26,133.22Zm7.34-2.55c.24.49.5,1,.75,1.41s.53.95.84,1.46c.27-.08.54-.16.8-.26l.14-.06a20.54,20.54,0,0,1-1-2.17A15,15,0,0,1,133.6,130.67Zm18.86,2.18a2.79,2.79,0,0,0,1,.42c0-.4,0-.79-.08-1.19C153.06,132.35,152.76,132.61,152.46,132.85Zm1.35-1.25a15.12,15.12,0,0,1,.14,1.64l.14-.05a2,2,0,0,0,.95-1.25,7.53,7.53,0,0,0,.4-2.48A13.41,13.41,0,0,1,153.81,131.6Zm-12.46,1.45,0,0a13.78,13.78,0,0,0,1.2-.85A12.48,12.48,0,0,1,141.35,133.05Zm-5.63-1.88c.27.63.57,1.24.9,1.84a12.2,12.2,0,0,0,2.47-1.52l-.14-.2a11.94,11.94,0,0,1-2.73,0Zm-10.43,1.69,0,0,0,0Zm15-.77c.2.21.42.41.64.61a13.94,13.94,0,0,0,2-1.48l0,0-.42-.34C141.84,131.27,141.07,131.69,140.27,132.09Zm-24.65-7.22a14,14,0,0,0,2.64,3.78,19.28,19.28,0,0,0,6.52,4l.21-.29a12.57,12.57,0,0,1-.66-1.18A35.8,35.8,0,0,1,115.62,124.87Zm33.19,4.71c.89.8,1.76,1.61,2.64,2.41l.24.23.34.29a12.37,12.37,0,0,0,1.22-1.09,13.85,13.85,0,0,0-1.84-5c-.21-.33-.44-.66-.67-1A16.42,16.42,0,0,1,148.81,129.58Zm-4.63,1.9c.38.32.74.64,1.1,1a11.24,11.24,0,0,0,2.83-2.8l-1.48-1.32-.07,0A16.17,16.17,0,0,1,144.18,131.48Zm-4.35.1.08.09c.76-.38,1.5-.77,2.2-1.17l-.06,0a9.06,9.06,0,0,1-1.59.56C140.25,131.22,140,131.4,139.83,131.58Zm-13.61-.07.35.16-.24-.32Zm-1.13-.53.64.31.29-.43A8.34,8.34,0,0,1,125,127l-1.24-.65c0,.25,0,.49,0,.73a9.72,9.72,0,0,0,.57,2.71A7.4,7.4,0,0,0,125.09,131ZM151,125a12.85,12.85,0,0,1,.84,1.2,14.06,14.06,0,0,1,1.84,4.76,13.86,13.86,0,0,0,1.71-2.47c0-.5-.1-1-.17-1.41a24.35,24.35,0,0,0-1.09-4.47,3.71,3.71,0,0,1-.84.11A30.77,30.77,0,0,1,151,125Zm-8,5.6.31.25c.34-.32.67-.67,1-1Zm-7.58,0c.26,0,.53.09.8.12a10.78,10.78,0,0,0,2.33.07,14.16,14.16,0,0,1-1.46-3.3l-.35.17a6.58,6.58,0,0,1-2.07.49,10.63,10.63,0,0,0,.27,1Q135.22,129.9,135.49,130.59Zm2.22-3.1a14.07,14.07,0,0,0,1.5,3.23,7.71,7.71,0,0,0,1-.18c.28-.26.56-.54.83-.84C139.93,128.92,138.81,128.19,137.71,127.49ZM133.28,130c.52.17,1.06.32,1.59.44-.13-.37-.26-.74-.37-1.12s-.22-.8-.3-1.18a8.79,8.79,0,0,1-1.68-.14A15,15,0,0,0,133.28,130Zm-18.23-6.51A34.89,34.89,0,0,0,124,130.4c-.06-.15-.12-.29-.17-.44a5.69,5.69,0,0,1-.26-.56,8.52,8.52,0,0,1-.58-3.49l-.24-.13a6.87,6.87,0,0,1-1.24.18,8,8,0,0,1-6.88-3.83Q114.8,122.84,115.05,123.51Zm10.45,3.72a7.66,7.66,0,0,0,.84,3.12c.44-.69.86-1.4,1.26-2.11C126.91,127.92,126.21,127.59,125.5,127.23Zm17.08,3,0,0,1.53-.92,1.24-.78c.19-.25.37-.51.56-.78l-.4-.34a9.07,9.07,0,0,1-2.16,2.28C143.12,129.86,142.85,130,142.58,130.19Zm-1.12-.17-.18.19.28-.12Zm.36-.4.29.22a8,8,0,0,0,3-2.79l-.86-.73A27.74,27.74,0,0,1,141.82,129.62ZM128.35,128l1.12.51c1,.45,2.05.9,3.12,1.28a16,16,0,0,1-.66-1.88,22.71,22.71,0,0,1-2.5-.7l-.53-.18C128.72,127.35,128.54,127.68,128.35,128Zm9.6-1c1.14.72,2.3,1.48,3.43,2.3a27.15,27.15,0,0,0,2.44-3.28l0,0-1.57-1.24a9.81,9.81,0,0,1-2.53.45A8,8,0,0,1,138,127Zm9.13,1,1.34,1.19a15.81,15.81,0,0,0,1.66-3.44C149.09,126.6,148.08,127.35,147.08,128Zm-38.57-14.68c-.45,1.31-.83,2.65-1.18,4-.68,2.53-1.27,5.19-.38,7.51a8,8,0,0,0,2.91,3.55,9.37,9.37,0,0,1,1.44-7.58,6.23,6.23,0,0,1,.49-.55,4.15,4.15,0,0,1-.56-1.94,3.44,3.44,0,0,1,.18-1.16A30,30,0,0,1,108.51,113.35Zm17,13.28c.8.4,1.61.79,2.39,1.15l.52-.93c-.95-.34-1.93-.72-2.89-1.17C125.48,126,125.47,126.32,125.48,126.63Zm6.89.82a9.32,9.32,0,0,0,1.73.18,10,10,0,0,1-.1-2.48l-1.25-.78-.56,0a8,8,0,0,0,.18,3.06Zm2.14-2a9.35,9.35,0,0,0,.13,2.14,5.83,5.83,0,0,0,2-.45l.34-.16-1.15-.73Zm20.15-3a25.23,25.23,0,0,1,1.11,4.55c0,.19.06.4.08.61,0,0,0,0,0,0a9,9,0,0,0,.91-3.33,6.58,6.58,0,0,0-.62-3.16,3.29,3.29,0,0,1-.95,1.07A3.7,3.7,0,0,1,154.66,122.42Zm-6.71,3a16.42,16.42,0,0,1-.84,2,37.2,37.2,0,0,0,3.18-2.46,15.36,15.36,0,0,0-1.43-1.48C148.59,124.08,148.28,124.74,148,125.39Zm-18.79,1.16a3.81,3.81,0,0,0,.44.15,21.82,21.82,0,0,0,2.19.64q-.09-.45-.15-.9a8.26,8.26,0,0,1,0-2c-.43,0-.86,0-1.29-.1C130,125,129.57,125.8,129.16,126.55Zm28.51-11.78a34.65,34.65,0,0,1,4.15,9c.34,1.17.62,2.38.87,3.52a59.89,59.89,0,0,0-.05-8.15A32.49,32.49,0,0,0,160,107.84a23.73,23.73,0,0,0-10.75-10.92,10.59,10.59,0,0,1,1.3,5.06c0,.5.05,1,.06,1.49a8.71,8.71,0,0,1,4,1.78c1.78,1.37,3.47,3.71,2.85,6.18v0A8.29,8.29,0,0,1,157.67,114.77Zm-11.84,12.17.4.35c.14-.22.29-.45.43-.69.28-.47.55-.95.8-1.42s.21-.66.31-1,.23-.93.32-1.4l-.54-.41A15.5,15.5,0,0,1,145.83,126.94Zm-8.73-2c.1.54.22,1.11.38,1.69a6.67,6.67,0,0,0,1.59-1.48A11.08,11.08,0,0,1,137.1,125Zm7.45.88.86.72a14.92,14.92,0,0,0,1.67-4.54l-.33-.21A41.37,41.37,0,0,1,144.55,125.87Zm-19-.76a32.13,32.13,0,0,0,3.1,1.27c.39-.73.78-1.45,1.16-2.18a15.24,15.24,0,0,1-2.6-.66,18.11,18.11,0,0,1-1.6,1C125.59,124.75,125.56,124.94,125.55,125.11Zm-1.81.62,1.2.63c0-.3,0-.61,0-.93-.17-.08-.35-.17-.52-.27-.24.11-.47.21-.7.29A2.46,2.46,0,0,0,123.74,125.73Zm10.83-.85,1.5.94.76.48c-.12-.5-.21-1-.29-1.44a11.38,11.38,0,0,1-1.84-.62C134.65,124.45,134.6,124.66,134.57,124.88Zm8.31-.35,1.26,1c.54-.88,1.05-1.77,1.52-2.69A9.5,9.5,0,0,1,142.88,124.53Zm-28.69-4.29c.12.28.25.55.39.82,1.47,2.77,4.26,4.53,6.87,4.37l.55-.05a46.52,46.52,0,0,1-7.87-5.56Zm0-1.12a46.43,46.43,0,0,0,8.64,6.09l.21-.06c0-.26.06-.51.1-.77a15.51,15.51,0,0,1-3.19-2.62,13,13,0,0,1-2-2.92q-.6-.36-1.23-.81c-.41.14-.82.3-1.22.46S114.55,118.9,114.15,119.12Zm9.68,5.7s0,0,0,0l.05,0Zm13.18-.39a10.79,10.79,0,0,0,2.46.23,12.11,12.11,0,0,0,.81-1.39c-.48-.33-1-.66-1.44-1a13.76,13.76,0,0,1-2,1l0,.17C136.93,123.8,137,124.11,137,124.43Zm3.71-.85c-.19.37-.39.72-.59,1a9.82,9.82,0,0,0,1.62-.29Zm-7.1.71.46.29c0-.13,0-.26.08-.38l-.53.08Zm-9.71,0,.56.32.45-.23.2-.11c.07-.45.16-.92.27-1.4-.37-.16-.74-.34-1.1-.52-.1.41-.18.8-.25,1.18S124,124,123.91,124.25Zm25.16-1.35a15.06,15.06,0,0,1,1.44,1.44,18.64,18.64,0,0,0,.42-2c-.49-.16-1-.33-1.45-.52C149.35,122.15,149.22,122.52,149.07,122.9Zm-13.74,1a9.32,9.32,0,0,0,1.13.37c0-.25-.07-.49-.09-.71h0C136,123.7,135.68,123.82,135.33,123.92Zm16.11-1.48c-.09.57-.2,1.16-.34,1.74.52-.49,1-1,1.52-1.52A8.05,8.05,0,0,1,151.44,122.44Zm-10.49.65c.48.35,1,.7,1.43,1.06a9,9,0,0,0,3.83-2.62,15.29,15.29,0,0,0-4.14-1.61c-.06.23-.13.47-.2.71A18.91,18.91,0,0,1,141,123.09Zm-15.06,0c-.07.28-.12.56-.17.84.29-.18.59-.37.87-.57Zm4.74.73c.37,0,.74.07,1.11.08,0,0,0-.07,0-.11l-.84-.53,0,.08Zm1.74-.28.52.33.67-.07.13,0a3.19,3.19,0,0,1-1.08-.93C132.52,123,132.44,123.27,132.37,123.5Zm-13.58-4.14a12.15,12.15,0,0,0,1.52,2,14.08,14.08,0,0,0,2.89,2.41c.11-.6.27-1.22.44-1.83-1.09-.57-2.12-1.2-3.06-1.81l0,0A14,14,0,0,1,118.79,119.36Zm8.94,3.79a16.62,16.62,0,0,0,2.34.56c.11-.22.22-.44.34-.65l.06-.12-1.42-.89C128.62,122.44,128.18,122.8,127.73,123.15Zm5.15-.92a1.05,1.05,0,0,0,.12.21,3.24,3.24,0,0,0,1.32,1l.05,0a4.22,4.22,0,0,1,.18-.45,7.27,7.27,0,0,1,1.63-2.26s0-.06,0-.09c-.35-.19-.7-.38-1.06-.56a4.94,4.94,0,0,0-1.14.73A4.7,4.7,0,0,0,132.88,122.23Zm3.33-.71a6.65,6.65,0,0,0-1.18,1.75l-.09.21a13,13,0,0,0,1.37-.46C136.27,122.52,136.24,122,136.21,121.52Zm-5,1.23.73.46a8,8,0,0,1,.39-1,3.35,3.35,0,0,1-.17-1.26C131.8,121.55,131.48,122.15,131.17,122.75Zm-5.16-.23c.36.15.73.3,1.11.43.5-.38,1-.77,1.46-1.19l-2-1.23h0l-.18.58C126.25,121.6,126.12,122.07,126,122.52ZM136.72,121c0,.6.06,1.19.11,1.78a12.26,12.26,0,0,0,1.51-.81c-.53-.34-1.07-.66-1.62-1Zm2.6,1,1.19.81a18.1,18.1,0,0,0,.85-2.31l.09-.3A15.63,15.63,0,0,1,139.32,122Zm-26.86-1.65a11,11,0,0,0,.7,1c.32.41.66.82,1,1.22a18.32,18.32,0,0,1-.48-2.13c-.11-.26-.21-.52-.3-.79A7.73,7.73,0,0,0,112.46,120.32Zm17,1.36,1.26.79c.53-1,1.06-2,1.61-3l.12-.21.08-.24-.29-.12C131.35,119.83,130.43,120.79,129.46,121.68Zm19.36-.18c0,.3-.07.6-.12.89.1-.27.19-.55.28-.82Zm-24.41.28,1.1.53c.11-.44.24-.88.37-1.34l.1-.33a11.39,11.39,0,0,1-1.31.13C124.57,121.11,124.49,121.45,124.41,121.78Zm23.26,0,.52.38c.05-.3.09-.6.12-.91l-.51-.23c0,.08,0,.16,0,.24Zm3.85.1a7.31,7.31,0,0,0,1.55.25l.51-.61h0a1.8,1.8,0,0,1-1.29-.08c-.23-.08-.45-.16-.68-.26C151.57,121.45,151.55,121.68,151.52,121.91Zm2.41,0-.12.15.16,0S153.94,122,153.93,122Zm.38-.47.17.42a2.13,2.13,0,0,0,.42-.23,2.82,2.82,0,0,0,.95-1.21,6.17,6.17,0,0,0-.39-.6C155.1,120.43,154.71,121,154.31,121.49Zm-4.67-.22c.45.17.9.34,1.36.48,0-.25.06-.5.08-.75-.41-.19-.8-.4-1.19-.63C149.81,120.67,149.73,121,149.64,121.27Zm-12.5-.63c.58.32,1.14.67,1.69,1a14.9,14.9,0,0,0,2.3-1.93,15.86,15.86,0,0,0-2.4-.22h0A17.4,17.4,0,0,0,137.14,120.64Zm-4.2-1.21c0,.12-.07.24-.1.36a4.44,4.44,0,0,0-.16,1.75,5.21,5.21,0,0,1,1.83-1.69c-.48-.23-1-.45-1.44-.65ZM147,121.38l.18.11a2.93,2.93,0,0,1,.05-.29l0-.18Zm-24.7-.76c.48.29,1,.57,1.49.85.07-.23.15-.46.23-.69A11.23,11.23,0,0,1,122.31,120.62Zm5-.26,1.65,1c.95-.86,1.84-1.79,2.71-2.73l-.19-.07A17.34,17.34,0,0,1,127.34,120.36Zm24.3.31.8.31a1.43,1.43,0,0,0,.92.09l.16-.1a19,19,0,0,0-1-2l-.81-.14C151.7,119.45,151.68,120.05,151.64,120.67Zm-9.43-1.27a16.51,16.51,0,0,1,4.3,1.68l.25-.55c-1.29-.67-2.54-1.41-3.76-2.17l-.36.46c-.13.17-.27.34-.41.5Zm6.67,1.55.26.11c.1-.32.19-.65.27-1l-.47-.3C148.93,120.18,148.91,120.57,148.88,121Zm-1-.45.48.22q0-.64.06-1.29l-.24-.17c-.06.17-.13.33-.2.49S147.92,120.25,147.88,120.5Zm6.69-1.67q0,.48-.06,1a3.57,3.57,0,0,1-.13.72c.26-.35.5-.72.74-1.09C155,119.22,154.76,119,154.57,118.83Zm-4.55,1c.36.21.73.41,1.1.59,0-.54,0-1.07,0-1.58v-.06l-.89-.15Q150.16,119.24,150,119.84Zm3.09-.84a15.85,15.85,0,0,1,.74,1.42,2.93,2.93,0,0,0,.13-.68,10.93,10.93,0,0,0,.06-1.4c-.24-.2-.49-.38-.74-.56a3.08,3.08,0,0,0-.11,1A.25.25,0,0,1,153.11,119Zm-16.44.66c0,.22,0,.44,0,.66.33-.28.67-.54,1-.78C137.34,119.56,137,119.61,136.67,119.66Zm-15.89,0a7.93,7.93,0,0,0,1,.31,9.5,9.5,0,0,0,2.41.28c.09-.26.19-.52.29-.78,0-.08,0-.15.07-.22l-3.4-2.13a19.67,19.67,0,0,0-3.19.53A28.92,28.92,0,0,0,120.78,119.66Zm4.22,0-.18.59a10.55,10.55,0,0,0,1.13-.12l-.91-.57A1,1,0,0,1,125,119.64Zm10.78.25.37.19c0-.1,0-.2,0-.3Zm7.53-2c1.19.74,2.41,1.46,3.66,2.11.18-.43.35-.86.51-1.3-.29-.22-.59-.46-.87-.69l-3.05-.49Zm-15.67-.41c-.32.8-.61,1.61-.88,2.43a15.61,15.61,0,0,0,4.07-1.59A27.33,27.33,0,0,0,127.64,117.52Zm-15.8.07a3.17,3.17,0,0,0-.08.69,3.52,3.52,0,0,0,.43,1.57,8.07,8.07,0,0,1,1-.78.65.65,0,0,0,0-.13C112.72,118.5,112.27,118.05,111.84,117.59Zm43.92,1.8c.11.14.21.28.31.43a5.9,5.9,0,0,0,.16-1.23C156.08,118.86,155.92,119.13,155.76,119.39ZM125.23,119l1.06.66c.25-.77.52-1.53.82-2.28q-.58-.11-1.17-.18C125.7,117.83,125.47,118.43,125.23,119Zm8.1-.31c.6.25,1.2.53,1.8.83a5.85,5.85,0,0,1,1-.32c0-.22,0-.44,0-.65q0-1.12-.06-2.25l-1-.16A20.86,20.86,0,0,0,133.33,118.73Zm15.62.43.59.39c.08-.33.14-.66.2-1l-.8-.13C149,118.67,149,118.91,149,119.16Zm-9.47-.15a16.13,16.13,0,0,1,2.09.26l.17-.2c.11-.44.21-.87.3-1.31a.41.41,0,0,1-.11-.07A23.69,23.69,0,0,0,139.48,119Zm-2.9-2.58c0,.72,0,1.43.07,2.14,0,.19,0,.37,0,.56a10.82,10.82,0,0,1,1.87-.15,26.31,26.31,0,0,1,2.86-1.62l-.32-.21Zm18,1.67a11.23,11.23,0,0,1,.84.85c.27-.45.52-.92.76-1.4a9.3,9.3,0,0,0-.81-2.8l-.11.12c-.32.36-.64.72-.93,1.09A13.75,13.75,0,0,1,154.57,118.1Zm-6.21.64.06,0a1.48,1.48,0,0,0,0-.21A1.09,1.09,0,0,1,148.36,118.74Zm-26.27-1.68,2.65,1.67c.18-.52.38-1,.59-1.56A23.61,23.61,0,0,0,122.09,117.06Zm-8.1-1.17a20.41,20.41,0,0,0,0,2.71c.39-.21.8-.41,1.25-.6l.91-.35-.12-.09C115.32,117,114.63,116.46,114,115.89Zm18.64,2.55.08,0,.09-.23Zm19-.11.46.08c-.16-.25-.33-.49-.5-.72C151.65,117.9,151.66,118.12,151.67,118.33Zm0-1.42a16.41,16.41,0,0,1,1,1.35,4.05,4.05,0,0,1,.16-.77A9.9,9.9,0,0,0,151.71,116.91Zm-1.37,1.21.79.13c0-.46,0-.9-.1-1.33l-.31-.36-.22-.06C150.47,117,150.42,117.57,150.34,118.12Zm-7.82-.06,0,.07,0,0Zm6.4-.17.9.14a15.32,15.32,0,0,0,.15-1.65l-.22,0c-.28,0-.57-.08-.85-.1,0,.1-.06.2-.1.31C148.85,117,148.89,117.44,148.92,117.89ZM127.84,117a27.35,27.35,0,0,1,3.61,1,22.14,22.14,0,0,0,2.2-1.49l.06-.07L134,116l-5.35-.87C128.36,115.76,128.09,116.39,127.84,117ZM112,117c.3.32.61.64.92.95a14.48,14.48,0,0,1-.28-2A5.34,5.34,0,0,0,112,117Zm5.3.82.17.11h0l-.13-.11Zm-4.17-2.54a17.63,17.63,0,0,0,.27,2.39,21.34,21.34,0,0,1,.08-2.25l-.26-.24Zm33.68,2.26.77.12c0-.48,0-1,0-1.45a11.71,11.71,0,0,0-2.08.26l.54.45Zm-4.2,0,.23.15.12-.19-.33,0A.29.29,0,0,0,142.63,117.5Zm10.85-.23.53.38c0-.37-.07-.74-.12-1.1A5.27,5.27,0,0,0,153.48,117.27Zm-52.21-5.82a5.14,5.14,0,0,0-1.33,2.94,6.74,6.74,0,0,0,.41,2.62c.07.21.14.41.22.62,0-1.13.14-2.3.29-3.54C101,113.28,101.09,112.38,101.27,111.45Zm12.78,3.77a29.77,29.77,0,0,0,2.31,1.92l.41.3.12,0a13.16,13.16,0,0,1-2.67-3.28l0,0C114.13,114.52,114.09,114.87,114.05,115.22Zm29.83,1.85,1.91.31-.06,0-.84-.71c-.3.07-.6.16-.9.26A1.74,1.74,0,0,0,143.88,117.07ZM117,114.42a14.14,14.14,0,0,0,.71,2.74,19.65,19.65,0,0,1,2.69-.5l-2.06-1.29A10,10,0,0,1,117,114.42Zm34.44,1.83A10.46,10.46,0,0,1,153,117a6.39,6.39,0,0,1,.72-1.16,10.65,10.65,0,0,0-2.49-4.93,8.66,8.66,0,0,0-1-.93c-.08.54-.16,1.09-.26,1.63l.09.32A13.12,13.12,0,0,1,151.48,116.25Zm-25.33.48,1.15.19c.26-.63.52-1.25.8-1.87l-1.09-.17c-.16.28-.31.58-.45.87S126.28,116.4,126.15,116.73Zm-11.54-3a12.12,12.12,0,0,0,2.47,3.14,14.84,14.84,0,0,1-.66-3.11,2.55,2.55,0,0,1-.24-.39l-.12-.26-.73-.12Zm33.53,2.49c0,.21,0,.43,0,.65l.06-.21,0-.36a.25.25,0,0,1,0-.08Zm-6.88.44,1,.15c.13-.75.21-1.49.27-2.23L141,113.33l-.61-.54a8.56,8.56,0,0,0-3.2,1.29.94.94,0,0,0-.1.1c.55.3,1.1.62,1.65.94C139.61,115.61,140.45,116.13,141.26,116.65ZM143,115c-.06.58-.13,1.17-.22,1.76l.88-.32.33-.59Zm12.76-.68a9.86,9.86,0,0,1,.82,2.36,8,8,0,0,0,.53-1.7l0-.09c-.27-.41-.55-.82-.83-1.22C156.11,113.89,155.93,114.11,155.74,114.32ZM123,116.52a23,23,0,0,1,2.6.14c.16-.38.33-.75.52-1.13l.32-.75-9.48-1.54,0,.31a6.5,6.5,0,0,0,1.72,1.37l2.65,1.66C121.85,116.54,122.4,116.52,123,116.52Zm-14.22-3.81.21.32a28.66,28.66,0,0,0,2.69,3.54,7.38,7.38,0,0,1,1-1.47c0-.18,0-.37,0-.56a22,22,0,0,1-3-3.87C109.26,111.33,109,112,108.73,112.71Zm27.83,3.18,3.35.54-1.4-.85c-.59-.35-1.18-.69-1.78-1l-.23.22Zm7.83.31h0Zm.25-.48.38.32a14.81,14.81,0,0,1,2.58-.36c0-.57-.06-1.14-.11-1.71a11.34,11.34,0,0,0-1.72-.75A22.83,22.83,0,0,1,144.64,115.72Zm5.89-.13.36.37a15.46,15.46,0,0,0-.42-1.78C150.51,114.65,150.53,115.11,150.53,115.59Zm-1.48.13a6.93,6.93,0,0,1,.78.1l.16,0v0c-.25-.24-.51-.47-.77-.69C149.16,115.32,149.11,115.52,149.05,115.72Zm-13.57,0,.54.09,0-.55Zm12.65,0h0l0-.15Zm-19.26-1,5.44.88c.38-.55.78-1.09,1.2-1.61q-2.49-1.29-5.07-2.35l-.19.35Q129.51,113.26,128.87,114.64Zm14.16-.3,1.2,1a22.11,22.11,0,0,0,1-2.31,10.9,10.9,0,0,0-2.17-.4Q143.09,113.5,143,114.34Zm8.59-3.85a.08.08,0,0,0,0,0,11.18,11.18,0,0,1,2.51,4.77c.22-.26.46-.53.69-.78l.24-.28A10.2,10.2,0,0,0,151.62,110.49Zm-2.25,4.07.14.12.48.4c0-.35,0-.7-.07-1l-.33-.38C149.52,114,149.44,114.26,149.37,114.56Zm-.62.2v0Zm-21.47-.38,1.05.17c.45-1,.94-1.94,1.45-2.89l.17-.3-.41-.16A21.22,21.22,0,0,0,127.28,114.38Zm-14.15,0,.09.09.17-.19.29-.3.12-.67c-.08-.19-.15-.37-.22-.56l-.4-.06C113.15,113.22,113.13,113.78,113.13,114.33Zm3.75-1.63,9.73,1.57c.53-1.22,1.08-2.41,1.64-3.56a61.35,61.35,0,0,0-7.53-2.22l-.63-.14c-1.08,1-2.14,2-3.18,3.05C116.88,111.83,116.87,112.26,116.88,112.7Zm31.8,1.37.22.15c.09-.34.17-.69.25-1l-.77-.78A15.34,15.34,0,0,1,148.68,114.07Zm7.93-.85.6.85a8.06,8.06,0,0,0-.09-1.69A7.23,7.23,0,0,1,156.61,113.22Zm-15.49-.53.27.23,1.14,1c0-.43,0-.86,0-1.28A11.48,11.48,0,0,0,141.12,112.69Zm9.24-3.44a10.56,10.56,0,0,1,5.11,4.57q.25-.3.48-.6a35.8,35.8,0,0,0-5.41-5.86Q150.48,108.31,150.36,109.25Zm-40.51.84a21.16,21.16,0,0,0,2.75,3.69c0-.48,0-1,.08-1.47a.24.24,0,0,1,.1-.19.24.24,0,0,1,.2-.05l.42.06a10.19,10.19,0,0,1-.15-4.64c-.64,0-1.26,0-1.87,0-.38.54-.72,1.08-1,1.63C110.17,109.46,110,109.77,109.85,110.09Zm26.55,3.58h0a26.48,26.48,0,0,1,2.55-2.15l-.34-.3c-.63.62-1.23,1.29-1.8,2Zm-5.69-2.57c1.74.72,3.46,1.51,5.13,2.39-.08-.72-.19-1.44-.34-2.15a19.08,19.08,0,0,0-1.16-3.67l-.26-.2a17,17,0,0,0-1.59,1A22.46,22.46,0,0,0,130.71,111.1ZM146,112.72a11.75,11.75,0,0,1,1.47.62c-.06-.55-.14-1.11-.24-1.65-.05-.18-.12-.36-.18-.54l-.43-.37C146.38,111.45,146.18,112.09,146,112.72Zm-31.6.47v0l.33-.34-.27,0C114.4,113,114.37,113.08,114.35,113.19Zm35.38-.17.07.08c0-.07,0-.15,0-.22Zm-14.54-4.66a19.2,19.2,0,0,1,.83,2.87c.12.57.22,1.14.29,1.71l.1-.11c.57-.67,1.16-1.33,1.79-2C137.21,110,136.2,109.19,135.19,108.36Zm4.19,3.53c-.3.3-.59.61-.89.92a8.61,8.61,0,0,1,1.44-.45Zm11.2-5.19a37.25,37.25,0,0,1,5.7,6.07,5,5,0,0,0,.63-1.32,10,10,0,0,0-1.76-3.48,16.31,16.31,0,0,0-4.5-3.78C150.65,105,150.63,105.86,150.58,106.7Zm-7.49,5.43a11.85,11.85,0,0,1,2.35.43c.25-.69.48-1.41.68-2.15-.47-.38-1-.75-1.44-1.1a11,11,0,0,0-1.75.55C143,110.6,143.07,111.36,143.09,112.13Zm5-.73c.41.38.8.76,1.19,1.16l.15-.73c0-.06-.07-.11-.1-.16a12.85,12.85,0,0,0-2.14-2.5,2.86,2.86,0,0,0,.07.28A13.6,13.6,0,0,1,148.09,111.4Zm-32.3,1.12.1,0a.44.44,0,0,1,0-.1A.3.3,0,0,0,115.79,112.52Zm-1.25-.2.6.1.67-.68a6.93,6.93,0,0,1,1-3.21c.07-.24.14-.48.23-.72l-1-.13A27.53,27.53,0,0,0,114.54,112.32Zm-.56-.09h0a28.51,28.51,0,0,1,1.53-4.6c-.6-.06-1.18-.1-1.75-.12A9.5,9.5,0,0,0,114,112.23Zm25.83-.67.78.67a11.6,11.6,0,0,1,2-.13c0-.68-.06-1.36-.13-2A16.64,16.64,0,0,0,139.81,111.56Zm-32.46-3.44a.28.28,0,0,0,0,.09,6.79,6.79,0,0,0,1,3.91c.25-.68.54-1.35.86-2a18.25,18.25,0,0,1-1-2.19Zm9,3.83v0Zm12.4-1-.51,1.06c.25-.33.5-.65.77-1Zm10.24-.05.35.3.27-.28,1.67-1.74A13.31,13.31,0,0,0,139,110.85Zm-9.08-.07.3.12c.21-.36.43-.73.67-1.1,0,0,0,0,0,0C130.51,110.15,130.2,110.46,129.91,110.78Zm-12.57-2a12.83,12.83,0,0,0-.35,1.83c.81-.79,1.63-1.58,2.46-2.36-.54-.1-1.06-.2-1.58-.28l-.39.59ZM129,110.42l.39.15c.34-.38.7-.75,1.08-1.1a16.19,16.19,0,0,1,1.65-1.37,13.85,13.85,0,0,1,1.16-1.27c-.55-.42-1.1-.84-1.66-1.25C130.71,107.11,129.83,108.72,129,110.42Zm20.12-1a9.91,9.91,0,0,1,.54,1.15c0-.3.09-.61.13-.91l-.07,0Zm-14.34-2q1.93,1.56,3.82,3.17a11.57,11.57,0,0,1,3.51-2.37c0-.23-.1-.47-.16-.7-.93-.58-1.85-1.13-2.77-1.65a14,14,0,0,0-4.48,1.37A1.42,1.42,0,0,1,134.77,107.34Zm13.15,1.8c.36.35.71.73,1,1.12a7.65,7.65,0,0,0-.57-1.05Zm3.91-4.84a16,16,0,0,1,3.74,3.35,11.1,11.1,0,0,1,1.5,2.59,6.59,6.59,0,0,0-2.77-4.57A9.32,9.32,0,0,0,151.83,104.3Zm-31.27,3.61.28.06a63.33,63.33,0,0,1,7.65,2.26q1.29-2.61,2.69-5c-1.39-1-2.81-2-4.28-2.86C124.74,104.17,122.62,106,120.56,107.91Zm21.69,1c-.42.42-.84.85-1.25,1.28.45-.25.9-.47,1.35-.67C142.32,109.32,142.28,109.11,142.25,108.91Zm-33.76-7.75a14.16,14.16,0,0,0-4.95,5.2,16,16,0,0,0-1.36,3.53l.15-.11a17.51,17.51,0,0,1,2.15-3.7,20.05,20.05,0,0,1,3.19-3.27s0-.1,0-.15A5.65,5.65,0,0,1,108.49,101.16Zm36.91,8,.86.66.09-.36-.17-.39Q145.79,109.12,145.4,109.18Zm-36.67-1.36a16.63,16.63,0,0,0,.81,1.71c.11-.21.22-.43.34-.64.25-.45.53-.89.82-1.33C110,107.62,109.37,107.7,108.73,107.82Zm34,.66c0,.28.1.55.14.83a13.34,13.34,0,0,1,1.27-.41l-.85-.58-.41.11Zm-35.22-4.83a19,19,0,0,0-2.58,2.75,16.47,16.47,0,0,0-1.75,2.83c.38-.23.73-.4,1-.53a16.21,16.21,0,0,1,2.71-1,7,7,0,0,1,.7-1.94A7.24,7.24,0,0,1,107.49,103.65Zm40.85,4.59a9,9,0,0,1,1.51.78c.08-.69.14-1.39.19-2.09-.87-.73-1.78-1.42-2.71-2.06a10.07,10.07,0,0,1,0,2.33l.2.18A6.13,6.13,0,0,1,148.34,108.24Zm-4.33-.06.8.56a8.93,8.93,0,0,1,1.14-.16l-.21-.44A7.15,7.15,0,0,0,144,108.18Zm3.29.37.46,0c-.21-.07-.42-.14-.63-.19h0Zm-.08-.69.05,0-.05,0Zm-29-.41c.56.09,1.13.2,1.7.32q3.18-2.94,6.5-5.66l-.91-.52A19.28,19.28,0,0,0,118.22,107.45Zm26.22-.61-1,.89a8.11,8.11,0,0,1,1.85-.15l-.14-.15Zm1.53.57.15.12,0,0c-.06-.22-.13-.43-.21-.64l-.31-.16C145.76,107,145.87,107.2,146,107.41Zm.7,0,.06.17s0-.08,0-.12Zm-38.91-.79a5.28,5.28,0,0,0-.31,1l.56-.13C107.92,107.14,107.83,106.87,107.76,106.6Zm34.64.51.56.36,1-1-.69-.54a12.07,12.07,0,0,0-1.34-.22C142.13,106.19,142.27,106.64,142.4,107.11Zm-34.27-1.27a10.23,10.23,0,0,0,.41,1.47,22.79,22.79,0,0,1,2.55-.31,26.93,26.93,0,0,1,4.55-4.77l.23-.29a16.33,16.33,0,0,1,3.19-3,14.45,14.45,0,0,0-2.83-.39c-.76.3-1.51.62-2.26,1s-1.64.81-2.39,1.24q-1.31,1.73-2.51,3.53A16.93,16.93,0,0,0,108.13,105.84Zm8.19,1.34.94.12a14.12,14.12,0,0,1,5.87-6.92c-.66-.31-1.31-.57-1.94-.8a11.85,11.85,0,0,0-1.9,2.32A38.1,38.1,0,0,0,116.32,107.18Zm-2.41-.2c.6,0,1.22.07,1.86.13a36.78,36.78,0,0,1,3.08-5.5,13.69,13.69,0,0,1,1.77-2.22l-.07,0-1.15.74a41.56,41.56,0,0,0-3.37,2.5A12.26,12.26,0,0,0,113.91,107Zm.65-3.08a24.49,24.49,0,0,0-2.78,3.07c.52,0,1,0,1.59,0A12.51,12.51,0,0,1,114.56,103.9Zm31.84,2.68.41.26a9,9,0,0,0,0-1.87,9.55,9.55,0,0,0-.8.57C146.15,105.88,146.28,106.23,146.4,106.58Zm-22.68-5.93a13.71,13.71,0,0,0-5.67,6.14,20,20,0,0,1,6.88-5.52C124.52,101.05,124.12,100.84,123.72,100.65Zm16.37,5,1.64,1c-.1-.33-.21-.66-.33-1C141,105.68,140.53,105.68,140.09,105.7Zm-5.69.84.06.14a14.76,14.76,0,0,1,4-1.32l-.78-.43-.45.11A8.18,8.18,0,0,0,134.4,106.54Zm-2.52-1.42c.6.44,1.19.89,1.78,1.35l.07-.07a19.7,19.7,0,0,0-1.31-2.16Zm15.8-.65c.82.57,1.62,1.17,2.39,1.8,0-.77.05-1.54,0-2.32a4.73,4.73,0,0,0-1.38.14A5.74,5.74,0,0,0,147.68,104.47Zm-2.33,1.59.35.15-.12-.33Zm-12.62-2.31a19.31,19.31,0,0,1,1.42,2.31,8.69,8.69,0,0,1,2.82-1.5h0c-1.14-.62-2.32-1.25-3.54-1.86C133.18,103,133,103.39,132.73,103.75Zm10.82,1.72c.3.07.6.15.9.25a45.07,45.07,0,0,0-2.63-4c-.89-.4-1.79-.76-2.71-1.08a15.6,15.6,0,0,1,2,3C141.91,104.25,142.72,104.84,143.55,105.47Zm-.73-3.24c.82,1.16,1.55,2.3,2.2,3.41l.35-.28c-.32-.8-.68-1.59-1.08-2.36C143.81,102.73,143.32,102.48,142.82,102.23Zm-4.32,2.57.78.44a12.26,12.26,0,0,1,1.91-.08.69.69,0,0,1-.05-.13A7.66,7.66,0,0,0,138.5,104.8Zm6.61-1.34c.25.52.48,1,.7,1.56.27-.2.56-.4.86-.59C146.16,104.09,145.64,103.77,145.11,103.46Zm-37-.35A5.77,5.77,0,0,0,108,105c.2-.34.41-.66.63-1,.57-.84,1.15-1.68,1.76-2.51A24.56,24.56,0,0,0,108.13,103.11Zm19.21-1.06q2.11,1.29,4.11,2.75c.21-.35.42-.69.64-1a19.81,19.81,0,0,0-1.69-2,2.16,2.16,0,0,0-1.07-.71,2.39,2.39,0,0,0-1.76.77Zm11.8,2.19a8.4,8.4,0,0,1,1.73.18l-.18-.36a40.5,40.5,0,0,0-5.88-3.38c-.23.31-.45.62-.66.92l-.44.64c1.21.61,2.38,1.23,3.5,1.84l.52.29A7.4,7.4,0,0,1,139.14,104.24Zm7.09-2.28a6.42,6.42,0,0,1,.79,1.54,6.32,6.32,0,0,1,.18.62,6.27,6.27,0,0,1,1.4-.55,6.6,6.6,0,0,1,.73-.13l0,0C148.27,102.88,147.25,102.39,146.23,102Zm-1.54.65c.62.35,1.24.71,1.84,1.09l0,0a6.08,6.08,0,0,0-1.28-2.11c-.47-.18-.93-.35-1.4-.5C144.13,101.57,144.42,102.09,144.69,102.61Zm-13.91-1.17a20.32,20.32,0,0,1,1.61,1.85c.18-.28.36-.56.55-.84C132.23,102.1,131.51,101.76,130.78,101.44Zm14.76-.33a37.46,37.46,0,0,1,4,1.84l.56.3c0-.41,0-.82-.06-1.24a9.54,9.54,0,0,0-1.41-5.09,5.72,5.72,0,0,0-.45-.53,25,25,0,0,0-3.3-1.22c-.54-.16-1.09-.3-1.64-.42a7.71,7.71,0,0,0-2.56.64c-.27.12-.54.26-.8.4a27.69,27.69,0,0,1,2.44,2.95A12.39,12.39,0,0,1,145.54,101.11Zm-10.41-.87a40.6,40.6,0,0,1,5,2.81,15.11,15.11,0,0,0-2-2.69c-.84-.26-1.68-.48-2.54-.67C135.41,99.87,135.27,100.06,135.13,100.24Zm7,1.1c.57.26,1.13.53,1.68.82q-.37-.69-.78-1.35c-.55-.17-1.1-.32-1.65-.46Zm-32-1.1a5.48,5.48,0,0,0-1.66,1.92,26.67,26.67,0,0,1,2.72-1.79l.65-.85A16.22,16.22,0,0,0,110.16,100.24Zm19.12,0c1.36.54,2.68,1.14,3.95,1.77l.48-.7.6-.84c-.66-.29-1.31-.55-2-.79h-.07A22.68,22.68,0,0,0,129.28,100.23Zm-3.17,1.09.75.44c.12-.11.25-.21.38-.31a3.93,3.93,0,0,1,1.51-.86l-.33-.12A20.57,20.57,0,0,0,126.11,101.32Zm-1.81-1,1.23.65a20.9,20.9,0,0,1,2.08-.82c-.53-.19-1.07-.37-1.61-.53A12.65,12.65,0,0,0,124.3,100.34Zm14.09-.44c.94.29,1.87.63,2.79,1l-.59-.75c-.78-.17-1.56-.3-2.34-.4A1.85,1.85,0,0,1,138.39,99.9Zm5,.46.84.28a11.93,11.93,0,0,0-1.22-.87C143.16,100,143.29,100.16,143.41,100.36Zm-23.67-1.24a16.92,16.92,0,0,0-1.39,1.06l.76-.52.76-.5Zm21.15.56q.87.19,1.74.45c-.22-.33-.44-.66-.67-1l0,0A21,21,0,0,0,139.51,98l.31.36C140.19,98.82,140.55,99.25,140.89,99.68Zm-19.22-.49c.67.25,1.34.54,2,.86a12.34,12.34,0,0,1,1.43-.66c-.91-.25-1.83-.45-2.76-.61l-.07,0A5,5,0,0,0,121.67,99.19Zm11.91.38q.53.21,1,.45l.35-.45-.16,0C134.4,99.54,134,99.55,133.58,99.57Zm-6.66-.2q.77.25,1.53.54a22.41,22.41,0,0,1,2.75-.62l-.92-.27a14.33,14.33,0,0,0-2.12.12C127.75,99.2,127.33,99.27,126.92,99.37Zm-14.14-.14-.4.5c.44-.23.9-.45,1.36-.67l.39-.18C113.67,99,113.22,99.09,112.78,99.23Zm24.82-.09c.82.09,1.64.21,2.47.37l-.66-.79c-.3-.36-.61-.73-.94-1.09l-.76-.26a14.17,14.17,0,0,0-1,1C137,98.63,137.3,98.88,137.6,99.14Zm-14.23-.72c.89.18,1.76.41,2.62.66a13.84,13.84,0,0,1,2.1-.47l.24,0c-.62-.11-1.24-.2-1.85-.26A9.14,9.14,0,0,0,123.37,98.42ZM136.1,99l.59,0-.37-.29C136.25,98.87,136.17,99,136.1,99Zm-1.19,0h.52l.45-.54a11.5,11.5,0,0,0-6.49-2.12h0a14.57,14.57,0,0,0-6.25,1.59,9.38,9.38,0,0,1,3.43-.15,24.59,24.59,0,0,1,3.82.7,24.76,24.76,0,0,1,2.55.2c.66.08,1.31.19,2,.31Zm-14.59-.26.15,0,.37-.22-.2,0Zm-1.12-.3.44.1.12-.07-.33,0Zm6.51-8.13a10.47,10.47,0,0,0-2.18.23c-3.74.84-6.68,3.83-9.06,6.63-.3.35-.59.7-.88,1.06A11.64,11.64,0,0,1,116,98h.14a36,36,0,0,1,9.13-2.28,34.3,34.3,0,0,1,9.09-2,18,18,0,0,0-2-1.36A13.22,13.22,0,0,0,125.71,90.31Zm13.07,6.86a24.26,24.26,0,0,1,2.47,1c-.58-.74-1.19-1.45-1.84-2.13a11.09,11.09,0,0,0-1,.7Zm-17.38.92.21,0a19.12,19.12,0,0,1,4.88-2l-1.06.1-.43.17A28.74,28.74,0,0,0,121.4,98.09Zm11-1.83a13.07,13.07,0,0,1,3.79,1.81c.28-.3.57-.59.88-.88A27.78,27.78,0,0,0,132.45,96.26Zm-14.06,1.63,1.07,0c.35,0,.7,0,1.05.07a26.53,26.53,0,0,1,2.77-1.43,35.5,35.5,0,0,0-5.23,1.33ZM129,95.53a29.65,29.65,0,0,1,8.62,1.24l.07-.06A30.64,30.64,0,0,0,135,94.16a33.81,33.81,0,0,0-7.53,1.4Zm6.8-1.41a29,29,0,0,1,2.3,2.26,11,11,0,0,1,1-.7c-.14-.14-.28-.27-.41-.41-.42-.4-.86-.8-1.3-1.18Zm2.4,0,.84.78c.17.17.34.33.5.5.31-.17.63-.34,1-.48a8.4,8.4,0,0,1,1.28-.45A28.18,28.18,0,0,0,138.16,94.11Z" style="fill:#407BFF"></path></g><g id="freepik--Character--inject-67"><path d="M130.46,386.33c-6,3.67-63.67,29.91-10.34,29.91H193.2s-23.41-3.91-13.91-11.33C147.46,384.83,130.46,386.33,130.46,386.33Z" style="fill:#407BFF"></path><path d="M130.46,386.33c-6,3.67-63.67,29.91-10.34,29.91H193.2s-23.41-3.91-13.91-11.33C147.46,384.83,130.46,386.33,130.46,386.33Z" style="fill:#fff;opacity:0.6000000000000001"></path><path d="M258.64,176c-.23,3.66-.58,7.28-1,10.9s-.81,7.25-1.32,10.86l-.74,5.43-.84,5.42c-.55,3.62-1.2,7.23-1.87,10.87l-.19,1.1c-1.14,3.95-2.48,7.49-3.83,11s-2.83,7-4.32,10.45-3.09,6.82-4.74,10.18-3.36,6.68-5.26,10a5.79,5.79,0,0,1-10.73-3.78v-.06c.57-3.65,1.3-7.29,2-10.9s1.5-7.2,2.26-10.78l2.33-10.63c.76-3.49,1.49-7,2.05-10.25l-.2,1.1c.22-3.57.41-7.16.66-10.75l.35-5.4.4-5.39c.24-3.6.57-7.2.89-10.79s.7-7.2,1.15-10.76v0a11.51,11.51,0,0,1,22.9,2.19Z" style="fill:#803e3c"></path><path d="M229.44,256.33l3.06,1.11c5.72,4.92-1.88,11.18-1.88,11.18l-2.44,4.48a3.8,3.8,0,0,1-4.7,1.48l-4.73-1.68a4,4,0,0,1-2.75-4.8l1.46-4.21a7.84,7.84,0,0,1,2.1-3.2l3.3-3A6.46,6.46,0,0,1,229.44,256.33Z" style="fill:#407BFF"></path><path d="M221.43,259.68c2.38-9.32,4-19.65,4-19.65s9.08-1.86,14.21,2.29,3.75,7.6,3.75,7.6-8.16,10.93-10.73,13C228.91,261.56,221.43,259.68,221.43,259.68Z" style="fill:#407BFF"></path><path d="M239.75,154.73c-6.08,9.82-8.9,47.77-8.9,47.77,2,6.26,16.93,12.95,23.56,8.39,0,0,5.65-17,3.91-27.95C256.43,171,246.18,144.32,239.75,154.73Z" style="fill:#407BFF"></path><g style="opacity:0.6000000000000001"><path d="M239.75,154.73c-6.08,9.82-8.9,47.77-8.9,47.77,2,6.26,16.93,12.95,23.56,8.39,0,0,5.65-17,3.91-27.95C256.43,171,246.18,144.32,239.75,154.73Z" style="fill:#fff"></path></g><path d="M233.88,213.8c5.85,3.72,15.55,5.71,19.2,3.37a15.86,15.86,0,0,0,4.09-11.8c-4.71-3.67-25.37-7.77-28.21-7.25a35.32,35.32,0,0,0-1,10.26A19.5,19.5,0,0,0,233.88,213.8Z" style="fill:#407BFF"></path><path d="M233.88,213.8c5.85,3.72,15.55,5.71,19.2,3.37a15.86,15.86,0,0,0,4.09-11.8c-4.71-3.67-25.37-7.77-28.21-7.25a35.32,35.32,0,0,0-1,10.26A19.5,19.5,0,0,0,233.88,213.8Z" style="fill:#fff;opacity:0.5"></path><polygon points="255.91 389.72 272.94 389.88 271.55 410 257.31 409.88 255.91 389.72" style="fill:#7f3e3b"></polygon><polygon points="255.91 389.73 272.95 389.89 272.17 401.15 256.69 401.02 255.91 389.73" style="opacity:0.2"></polygon><path d="M279.25,327.33c9.83-23,27.77-63.34,12.92-84.57l-45.62,13.37s-6.07,56.7-4.47,71.87c2.6,24.64,12.67,69.56,12.67,69.56l19.5.05S280.69,355,279.25,327.33Z" style="fill:#263238"></path><path d="M285.8,311.74c3.94-9.84,7.88-20.87,10.13-31.6C286.28,276.17,282.23,289.79,285.8,311.74Z" style="opacity:0.2"></path><path d="M273.64,416.22h-4.5l-.93-1.5-2,1.52H243.67a8.41,8.41,0,0,1,1.09-4.66s7-1.58,10-4.2a2.36,2.36,0,0,1,2-.4c3,.59,10.9,1.89,15.42.19a.69.69,0,0,1,.91.66A52.15,52.15,0,0,0,273.64,416.22Z" style="fill:#407BFF"></path><polygon points="340.22 387.16 355.46 381.71 365.19 400.72 352.46 405.3 340.22 387.16" style="fill:#7f3e3b"></polygon><polygon points="340.23 387.17 355.48 381.71 360.92 392.36 347.08 397.32 340.23 387.17" style="opacity:0.2"></polygon><path d="M337.76,318.6c1.37-25.82.55-76.07-11.12-85l-51.26,14s14.8,52.65,22.41,75.25c8.11,24.09,46,72.72,46,72.72l17.12-6.84S347.75,341.17,337.76,318.6Z" style="fill:#263238"></path><path d="M246.28,149.08a214.11,214.11,0,0,1,44.81-15.41,16,16,0,0,1,19,13.38c5.7,37.4,18.64,81.15,20,88.39,0,0-61.3,40.84-83.66,23.35-17.57-42.19-10.69-79.58-9-96.88A15.9,15.9,0,0,1,246.28,149.08Z" style="fill:#407BFF"></path><path d="M246.28,149.08a214.11,214.11,0,0,1,44.81-15.41,16,16,0,0,1,19,13.38c5.7,37.4,18.64,81.15,20,88.39,0,0-61.3,40.84-83.66,23.35-17.57-42.19-10.69-79.58-9-96.88A15.9,15.9,0,0,1,246.28,149.08Z" style="fill:#fff;opacity:0.6000000000000001"></path><path d="M253.79,147.94a11.46,11.46,0,0,1,3.39-4.71,9.25,9.25,0,0,0-2-5.91l19.43-14.93c.85,7.89,1.06,13.22,5,15.77-.83,2.79-9.62,9.48-18.34,13.16C254,154.43,252.93,150.5,253.79,147.94Z" style="fill:#7f3e3b"></path><path d="M277.49,136c.1,2-9,11.73-18.67,16.22a37.24,37.24,0,0,1,11,4.25s10.05-6.27,11.79-20.44C279.88,134.84,277.49,136,277.49,136Z" style="fill:#fff"></path><path d="M257.18,143.23c-.68,1.46-5.5,8.53,1.64,9-5.28,3.37-6.36,7.48-6.36,7.48s-6.39-5.13,1.66-14.5A21.66,21.66,0,0,1,257.18,143.23Z" style="fill:#fff"></path><path d="M255.63,137.93,271.76,131c-3.16,7.37-10.22,12.26-14.59,11.31A9.34,9.34,0,0,0,255.63,137.93Z" style="opacity:0.2"></path><path d="M271.92,107c2.95,10.8,4.72,18.2.1,24.75-9.17,13-18.46,9.75-24.59,0-5.51-8.76-9.41-24.95-.44-32.59A15.42,15.42,0,0,1,271.92,107Z" style="fill:#7f3e3b"></path><path d="M253.31,129.87s3.3-.22,11.9-3.19c-1.86-2.73-4.27-3.11-8.67-1.54S253.31,129.87,253.31,129.87Z" style="fill:#263238"></path><path d="M253.72,129.82a2.23,2.23,0,0,1,.92-2,40.75,40.75,0,0,1,7.84-1.86,2.36,2.36,0,0,1,2.36.84A62.88,62.88,0,0,1,253.72,129.82Z" style="fill:#fff"></path><path d="M254.94,128a23.51,23.51,0,0,0,7.14-1.6,3.71,3.71,0,0,0,1.37-1.5c-1.63-1-3.75-.89-6.9.23a5.18,5.18,0,0,0-2.94,2.16A5.14,5.14,0,0,0,254.94,128Z" style="fill:#fff"></path><path d="M273.21,114.59c-5.59,3.24-8.17,2-8.17,2s2.92-6.31,2.25-9.22c-2.11,2.75-5.94,2-5.94,2s4.5-4.84,2.34-7.45c-6.88,5.62-21.25-.08-24.82,9.59-3.33-3.26-2.41-7.59-1.16-10.17-2.17.25-5.39.16-6.86-1C237,99,242.4,92.5,248.43,91.67c-3.64-4,.13-5.5.13-5.5s.16,5.41,7.07,3.91,14.13-2.91,14,2.42c9.51-.58,9.6,8.45,8.85,11.92C277.4,109.28,272.71,112.6,273.21,114.59Z" style="fill:#263238"></path><path d="M258.69,114.1a5.17,5.17,0,0,1,3.63-1.52A10.21,10.21,0,0,1,258.69,114.1Z" style="opacity:0.2"></path><path d="M259.11,114.94a4.25,4.25,0,0,1,3.53-.51A8.37,8.37,0,0,1,259.11,114.94Z" style="opacity:0.2"></path><path d="M244.28,119.51s-1.29-.59-1.65.24A2.24,2.24,0,0,0,244.28,119.51Z" style="opacity:0.2"></path><path d="M244.5,120.37s-1.09-.57-1.12.48A1,1,0,0,0,244.5,120.37Z" style="opacity:0.2"></path><path d="M243.67,111s6.77-3.37,10.91-3.36A61.39,61.39,0,0,1,243.67,111Z" style="opacity:0.2"></path><path d="M278.16,115.48a10,10,0,0,1-3,6.74c-2.39,2.19-4.94.06-5.4-3.26-.42-3,.32-7.72,3.26-8.62S278.32,112.24,278.16,115.48Z" style="fill:#7f3e3b"></path><path d="M256.11,115.67c.31.86.1,1.71-.46,1.91s-1.27-.33-1.58-1.19-.1-1.71.46-1.91S255.8,114.82,256.11,115.67Z" style="fill:#263238"></path><path d="M247.08,119.09c.31.85.11,1.71-.45,1.9s-1.27-.33-1.58-1.19-.11-1.71.45-1.9S246.77,118.23,247.08,119.09Z" style="fill:#263238"></path><path d="M249.87,118.71l2.31,4.48a1.71,1.71,0,0,1-.68,2.29,5.44,5.44,0,0,1-2.93.81C247.9,122.79,249.87,118.71,249.87,118.71Z" style="fill:#630f0f"></path><path d="M252.74,114.61a.5.5,0,0,0,0,.27.53.53,0,0,0,.63.42,5.37,5.37,0,0,0,3.89-3,.53.53,0,0,0-.3-.69.55.55,0,0,0-.7.3h0a4.25,4.25,0,0,1-3.1,2.33A.56.56,0,0,0,252.74,114.61Z" style="fill:#263238"></path><path d="M240,114.9a.5.5,0,0,0,.5,0,4.2,4.2,0,0,1,3.84-.33.53.53,0,0,0,.71-.25.53.53,0,0,0-.24-.71A5.25,5.25,0,0,0,240,114a.54.54,0,0,0-.19.73A.58.58,0,0,0,240,114.9Z" style="fill:#263238"></path><path d="M369.74,403l-3.49,1.24-1.73-1-1,2-21.08,7.47a8,8,0,0,1-1.44-4.43s5.1-3.1,7.06-6.6a.81.81,0,0,1,.64-.53c2.36-.18,10.37-2.83,14.24-5.75a1,1,0,0,1,1.39.36A39.88,39.88,0,0,0,369.74,403Z" style="fill:#407BFF"></path><path d="M293.67,247.57c-.33,3.52.58,9,4.94,16.76,3.72,6.64,9.19,15.69,14,12.42L325.45,268c4.9-3.33-4-13.73-11.22-13.86-8.21-.14-4.49-7.28-8-9a14.49,14.49,0,0,0-7.7-1Z" style="fill:#fff;opacity:0.6000000000000001"></path><path d="M320.1,258.2c.09.05-.09-.07,0,0Z" style="fill:#fff"></path><path d="M325,264.26a10.92,10.92,0,0,0-2.68-4.15,5.13,5.13,0,0,0-4.95-1.4,26,26,0,0,0-5.94,2.25c-5.09,2.69-11.93.93-11.16,2.87.11.2.22.4.35.61,2.11,3.74,6.12,10.49,9.35,11.25a2,2,0,0,0,1.69-.34l12.84-8.73C324.78,266.44,325.5,265.94,325,264.26Z" style="fill:#fff"></path><rect x="291.99" y="243.24" width="7.64" height="4.01" rx="1.1" transform="matrix(0.83, -0.56, 0.56, 0.83, -86.7, 208.7)" style="fill:#263238"></rect><path d="M295.49,232.42a23.55,23.55,0,0,0,3.92,5.12c.54.53.29,1.47-.39,1.47a3.88,3.88,0,0,1-3-1.42c-.42.78-1.9.51-1.9.51S292.5,231.43,295.49,232.42Z" style="fill:#263238"></path><path d="M285,240.4h0s4.09,0,7.6,4.69a.7.7,0,0,0,1,.17l3.18-2.16a.69.69,0,0,0,.24-.86c-.86-1.87-3.39-8.14-.74-9.94l2.19-1.49a2.16,2.16,0,0,0,.57-3h0a2.16,2.16,0,0,0-3-.57l-8.75,5.94C284,235.4,283,237.42,285,240.4Z" style="fill:#407BFF"></path><rect x="296.02" y="226.99" width="1.1" height="4.93" rx="0.39" transform="translate(-77.69 206.38) rotate(-34.2)" style="fill:#263238"></rect><path d="M318.49,231.78a1,1,0,0,1-.83-.44c-4.86-7.16-11-10.76-17.26-10.15a1,1,0,0,1-.2-2c7-.68,13.82,3.23,19.11,11a1,1,0,0,1-.26,1.39A1,1,0,0,1,318.49,231.78Z" style="fill:#407BFF"></path><path d="M318.49,231.78a1,1,0,0,1-.76-.35c-4.35-5.09-11.41-7.67-16.8-6.13a1,1,0,0,1-.54-1.93c6.2-1.77,13.95,1,18.86,6.76a1,1,0,0,1-.76,1.65Z" style="fill:#407BFF"></path><path d="M318.49,231.78a1.06,1.06,0,0,1-.61-.2c-6.29-4.79-11.42-5.64-16.13-2.69a1,1,0,0,1-1.07-1.7c5.52-3.45,11.37-2.56,18.41,2.79a1,1,0,0,1,.19,1.4A1,1,0,0,1,318.49,231.78Z" style="fill:#407BFF"></path><path d="M302.9,232a1,1,0,0,1-.72-.31,1,1,0,0,1,0-1.42c4.11-4,10.71-4.08,16.8-.34a1,1,0,0,1,.33,1.37,1,1,0,0,1-1.38.33c-5.29-3.25-10.93-3.22-14.37.09A1,1,0,0,1,302.9,232Z" style="fill:#407BFF"></path><path d="M318.49,231.78a1,1,0,0,1-.6-.2c-8-5.91-10.21-13.39-11.65-19.93a1,1,0,0,1,.76-1.2,1,1,0,0,1,1.19.76c1.37,6.2,3.45,13.26,10.89,18.77a1,1,0,0,1-.59,1.8Z" style="fill:#407BFF"></path><path d="M318.49,231.78a1,1,0,0,1-.68-.27c-5.83-5.38-7.34-13.42-6.82-19.15a1,1,0,0,1,1.09-.91,1,1,0,0,1,.9,1.09c-.48,5.25.89,12.61,6.19,17.51a1,1,0,0,1-.68,1.73Z" style="fill:#407BFF"></path><path d="M318.49,231.78a1,1,0,0,1-.82-.43c-5.07-7.25-5.72-13.13-2.06-18.5a1,1,0,0,1,1.39-.26,1,1,0,0,1,.26,1.38c-3.13,4.6-2.48,9.76,2.05,16.24a1,1,0,0,1-.25,1.39A1,1,0,0,1,318.49,231.78Z" style="fill:#407BFF"></path><path d="M318.49,231.78a1,1,0,0,1-.87-.51c-3.5-6.24-3.1-12.82,1-16.78a1,1,0,1,1,1.39,1.45c-3.44,3.3-3.7,8.93-.66,14.35a1,1,0,0,1-.87,1.49Z" style="fill:#407BFF"></path><path d="M342.19,255.45h0a1.29,1.29,0,0,1-1.81,0l-22.6-23.52,1.84-1.77,22.61,23.52A1.29,1.29,0,0,1,342.19,255.45Z" style="fill:#263238"></path><path d="M320.43,231l-1.8,1.73a1.2,1.2,0,0,1-1.69,0h0a1.21,1.21,0,0,1,0-1.7l1.8-1.73a1.2,1.2,0,0,1,1.69,0h0A1.2,1.2,0,0,1,320.43,231Z" style="fill:#fff"></path><path d="M243.63,253.23c-.58,2.82-.92,6.28,0,8.2a1.22,1.22,0,0,0,.7.64c17.28,6.09,58.52-1.43,88.57-22.38a1.22,1.22,0,0,0,.53-1c.09-2.72-1.88-7.91-2.88-10.35a1.21,1.21,0,0,0-1.77-.56c-6.58,4.16-31,21.45-59.06,25.28-14.92,2-22-.14-24.59-.79A1.21,1.21,0,0,0,243.63,253.23Z" style="fill:#407BFF"></path><path d="M314,148l1,1.39.92,1.3c.6.87,1.16,1.74,1.73,2.61,1.15,1.74,2.21,3.52,3.26,5.31s2,3.63,3,5.48,1.9,3.73,2.76,5.67,1.72,3.88,2.5,5.88,1.49,4.05,2.14,6.16a66.17,66.17,0,0,1,2.8,13.49l.06.65a6.89,6.89,0,0,1,0,1.11,16.16,16.16,0,0,1-2.21,7.31,16.38,16.38,0,0,1-4.45,4.9,24.09,24.09,0,0,1-8.24,3.79,39,39,0,0,1-6.9,1.14c-2.18.18-4.27.25-6.33.22a94.19,94.19,0,0,1-11.92-1A96,96,0,0,1,282.64,211a5.77,5.77,0,0,1,1-11.3l.28,0c3.46-.34,7.13-.63,10.63-1s7-.85,10.26-1.49c1.64-.31,3.22-.64,4.7-1.06a27.3,27.3,0,0,0,3.9-1.37c1.05-.46,1.82-1.07,1.64-1.14s-.42.18-.82.75a4.59,4.59,0,0,0-.73,2l.09,1.77a58.64,58.64,0,0,0-2.93-9c-.63-1.55-1.34-3.11-2.09-4.67s-1.51-3.14-2.33-4.7c-1.66-3.11-3.4-6.25-5.27-9.33-.91-1.55-1.88-3.07-2.82-4.6l-1.44-2.27-1.36-2.1L295,161a11.5,11.5,0,0,1,19-13Z" style="fill:#803e3c"></path><path d="M298.93,134c23.6,11.34,32.84,50.38,32.84,50.38-2.82,7.32-15.74,10.53-23.6,8.55,0,0-14.42-19-18-29.48C286.26,152,287.9,128.7,298.93,134Z" style="fill:#407BFF"></path><g style="opacity:0.6000000000000001"><path d="M298.93,134c23.6,11.34,32.84,50.38,32.84,50.38-2.82,7.32-15.74,10.53-23.6,8.55,0,0-14.42-19-18-29.48C286.26,152,287.9,128.7,298.93,134Z" style="fill:#fff"></path></g><path d="M317.19,195.5c6.79-1.4,15.14-6.72,16.14-10.94-.14-5.92-2.38-10.06-3.8-11.1-5.94.64-25.1,11.84-26.78,14.19a35.28,35.28,0,0,0,6.45,8A19.32,19.32,0,0,0,317.19,195.5Z" style="fill:#407BFF"></path><path d="M317.19,195.5c6.79-1.4,15.14-6.72,16.14-10.94-.14-5.92-2.38-10.06-3.8-11.1-5.94.64-25.1,11.84-26.78,14.19a35.28,35.28,0,0,0,6.45,8A19.32,19.32,0,0,0,317.19,195.5Z" style="fill:#fff;opacity:0.5"></path><path d="M133.79,418.67h-.07c-12.56-.83-19.09-3.63-20-8.55-1.6-9.15,18.33-21,24.12-23.53a1,1,0,1,1,.8,1.84c-7.41,3.25-24.16,14.43-23,21.34.66,3.78,6.93,6.16,18.12,6.91a1,1,0,0,1-.07,2Z" style="fill:#407BFF"></path><path d="M133.79,418.67h-.07c-12.56-.83-19.09-3.63-20-8.55-1.6-9.15,18.33-21,24.12-23.53a1,1,0,1,1,.8,1.84c-7.41,3.25-24.16,14.43-23,21.34.66,3.78,6.93,6.16,18.12,6.91a1,1,0,0,1-.07,2Z" style="fill:#fff;opacity:0.8"></path><path d="M177.62,418.67h0c-20.66-.31-25-6.15-24.94-11,0-6.89,9.52-14.31,16.17-14.34h0a1,1,0,0,1,0,2c-5.57,0-14.15,6.65-14.18,12.36,0,5.49,8.34,8.76,23,9a1,1,0,0,1,0,2Z" style="fill:#407BFF"></path><path d="M177.62,418.67h0c-20.66-.31-25-6.15-24.94-11,0-6.89,9.52-14.31,16.17-14.34h0a1,1,0,0,1,0,2c-5.57,0-14.15,6.65-14.18,12.36,0,5.49,8.34,8.76,23,9a1,1,0,0,1,0,2Z" style="fill:#fff;opacity:0.8"></path><path d="M183.69,399.36l-1.38,7.52a1.57,1.57,0,0,1-2.1,1.17L127.62,387.8a1.55,1.55,0,0,1-.76-2.27l4-6.51a3.93,3.93,0,0,1,4.77-1.6L181.23,395A3.94,3.94,0,0,1,183.69,399.36Z" style="fill:#407BFF"></path><path d="M302.4,153.49,289,174.9a1.83,1.83,0,0,1-2.51.58h0a1.82,1.82,0,0,1-.58-2.5l13.38-21.41a1.82,1.82,0,0,1,2.5-.58h0A1.82,1.82,0,0,1,302.4,153.49Z" style="fill:#407BFF"></path><path d="M317.21,129.8a2.42,2.42,0,0,0-3.34.77L158.45,379.3l-4.4-1.7c-1.4-.54-3.13.1-4.54,1.67l-3.18,3.55,23.34,9,0-4.77c0-2.1-.85-3.74-2.25-4.28l-4.39-1.69L318,133.14A2.43,2.43,0,0,0,317.21,129.8Z" style="fill:#407BFF"></path><path d="M317.21,129.8a2.42,2.42,0,0,0-3.34.77L158.45,379.3l-4.4-1.7c-1.4-.54-3.13.1-4.54,1.67l-3.18,3.55,23.34,9,0-4.77c0-2.1-.85-3.74-2.25-4.28l-4.39-1.69L318,133.14A2.43,2.43,0,0,0,317.21,129.8Z" style="fill:#fff;opacity:0.30000000000000004"></path><rect x="171.72" y="328.4" width="42.97" height="4.93" rx="1.02" transform="translate(-189.77 319.38) rotate(-58)" style="fill:#407BFF"></rect><rect x="171.72" y="328.4" width="42.97" height="4.93" rx="1.02" transform="translate(-189.77 319.38) rotate(-58)" style="fill:#fff;opacity:0.5"></rect><path d="M289.53,201.72,288,209.11c-4.22,6.7-11.9-.21-11.9-.21l-5-1.83a4,4,0,0,1-2.27-4.65l1-5.17a4.16,4.16,0,0,1,4.56-3.6l4.59.86a8.25,8.25,0,0,1,3.65,1.68Z" style="fill:#407BFF"></path><path d="M283.26,199a156.74,156.74,0,0,0,17.59-2.28c3.66,3.5,5.62,15.39,3.95,19.11-11.39.78-21.95-4.44-21.95-4.44S279.13,201.11,283.26,199Z" style="fill:#407BFF"></path><path d="M136.46,399.27c-13.09-2.63-28.49-12.43-34.33-21.86l.85-.52c5.62,9.06,21,18.86,33.67,21.4Z" style="fill:#407BFF"></path><path d="M189.93,407.9l-.12-1c5.73-.74,18.56-5,24.81-8.78l.52.86C208.79,402.81,195.76,407.15,189.93,407.9Z" style="fill:#407BFF"></path><path d="M101.46,391.49A55.4,55.4,0,0,1,87.82,377l.86-.52A53.71,53.71,0,0,0,102,390.67Z" style="fill:#407BFF"></path><path d="M202.56,400l-.37-.93a33.62,33.62,0,0,0,10.08-6.63l.7.71A34,34,0,0,1,202.56,400Z" style="fill:#407BFF"></path><ellipse cx="75.89" cy="391.08" rx="8" ry="9.92" style="fill:#407BFF"></ellipse><ellipse cx="75.89" cy="391.08" rx="8" ry="9.92" style="fill:#fff;opacity:0.8"></ellipse><ellipse cx="144.67" cy="357.38" rx="10.52" ry="13.05" style="fill:#407BFF"></ellipse><ellipse cx="144.67" cy="357.38" rx="10.52" ry="13.05" style="fill:#fff;opacity:0.8"></ellipse><ellipse cx="108.61" cy="364.57" rx="4.72" ry="5.85" style="fill:#407BFF"></ellipse><ellipse cx="108.61" cy="364.57" rx="4.72" ry="5.85" style="fill:#fff;opacity:0.8"></ellipse><path d="M196.15,386.31c-3.54.81-4.07,1.46-4.72,5.85-.65-4.39-1.18-5-4.72-5.85,3.54-.81,4.07-1.47,4.72-5.86C192.08,384.84,192.61,385.5,196.15,386.31Z" style="fill:#407BFF"></path><path d="M196.15,386.31c-3.54.81-4.07,1.46-4.72,5.85-.65-4.39-1.18-5-4.72-5.85,3.54-.81,4.07-1.47,4.72-5.86C192.08,384.84,192.61,385.5,196.15,386.31Z" style="fill:#fff;opacity:0.8"></path><path d="M262.34,252.29c-4.1.26-9.42-1-10.29.4s-1.12,11.81,2.77,12.88,14.63-.15,19.73-.75c2.82-.33,2.56-14.29-1-14S266.9,252,262.34,252.29Z" style="fill:#407BFF"></path><path d="M262.34,252.29c-4.1.26-9.42-1-10.29.4s-1.12,11.81,2.77,12.88,14.63-.15,19.73-.75c2.82-.33,2.56-14.29-1-14S266.9,252,262.34,252.29Z" style="fill:#fff;opacity:0.30000000000000004"></path></g><g id="freepik--Bucket--inject-67"><path d="M383,347.24a6.9,6.9,0,0,1,5.84,3.24,4.7,4.7,0,0,1,5-.67,7.91,7.91,0,0,1,9-2.11,12.78,12.78,0,1,1,0,14.69,7.83,7.83,0,0,1-3,.59,7.91,7.91,0,0,1-7-4.17,4.34,4.34,0,0,1-1,.1,4.73,4.73,0,0,1-3-1.12A6.89,6.89,0,1,1,383,347.24Z" style="fill:#407BFF"></path><path d="M383,347.24a6.9,6.9,0,0,1,5.84,3.24,4.7,4.7,0,0,1,5-.67,7.91,7.91,0,0,1,9-2.11,12.78,12.78,0,1,1,0,14.69,7.83,7.83,0,0,1-3,.59,7.91,7.91,0,0,1-7-4.17,4.34,4.34,0,0,1-1,.1,4.73,4.73,0,0,1-3-1.12A6.89,6.89,0,1,1,383,347.24Z" style="fill:#fff;opacity:0.9"></path><path d="M377,359.62h48.14a2.55,2.55,0,0,1,2.52,2.9l-7.38,51.54a2.54,2.54,0,0,1-2.51,2.18h-33.4a2.54,2.54,0,0,1-2.51-2.18l-7.37-51.54A2.54,2.54,0,0,1,377,359.62Z" style="fill:#407BFF"></path><path d="M377,359.62h48.14a2.55,2.55,0,0,1,2.52,2.9l-7.38,51.54a2.54,2.54,0,0,1-2.51,2.18h-33.4a2.54,2.54,0,0,1-2.51-2.18l-7.37-51.54A2.54,2.54,0,0,1,377,359.62Z" style="fill:#fff;opacity:0.6000000000000001"></path><path d="M375.55,362.17h51.12a2.56,2.56,0,0,0,2.55-2.55h0a2.56,2.56,0,0,0-2.55-2.56H375.55a2.56,2.56,0,0,0-2.55,2.56h0A2.56,2.56,0,0,0,375.55,362.17Z" style="fill:#407BFF"></path><path d="M413.52,384.8c-13.35,0-28.8-10.84-34.45-24.17a1,1,0,1,1,1.75-.74c5.38,12.68,20.05,23,32.7,23,5.61,0,10.06-2.06,12.54-5.8,2.77-4.19,2.84-10.18.18-16.46a1,1,0,1,1,1.75-.74c2.91,6.87,2.79,13.52-.34,18.25C424.81,382.43,419.79,384.8,413.52,384.8Z" style="fill:#407BFF"></path><path d="M411.34,386l9.67-1a3,3,0,0,0,2.58-2.65h0a1.93,1.93,0,0,0-2.21-2.13l-9.68,1a3,3,0,0,0-2.58,2.65h0A1.94,1.94,0,0,0,411.34,386Z" style="fill:#263238"></path></g></svg>